<svg width="44" height="44" viewBox="0 0 44 44" fill="none" xmlns="http://www.w3.org/2000/svg">
<path d="M43.5 22.0519C43.5 33.8964 33.8752 43.5003 22 43.5003C10.1248 43.5003 0.5 33.8964 0.5 22.0519C0.5 10.2074 10.1248 0.603577 22 0.603577C33.8752 0.603577 43.5 10.2074 43.5 22.0519Z" fill="black" stroke="#2A2A2A"/>
<path d="M27.1812 21.5724C27.1587 19.0726 29.2285 17.8725 29.3221 17.814C28.1574 16.1147 26.3448 15.8819 25.6981 15.8545C24.1564 15.6989 22.6883 16.7596 21.9068 16.7596C21.1254 16.7596 19.9169 15.8769 18.6386 15.9018C16.9558 15.9267 15.4066 16.8766 14.5402 18.378C12.7938 21.3994 14.0946 25.8774 15.7948 28.3299C16.6275 29.5287 17.6187 30.8795 18.922 30.8297C20.1779 30.7799 20.6522 30.0205 22.1678 30.0205C23.6833 30.0205 24.1102 30.8297 25.4372 30.806C26.7867 30.7799 27.6431 29.581 28.4695 28.3784C29.4233 26.9866 29.8177 25.6396 29.8402 25.5686C29.8103 25.5562 27.2087 24.5615 27.1812 21.5724Z" fill="white"/>
<path d="M24.6878 14.2321C25.3794 13.3968 25.8462 12.2352 25.7177 11.0775C24.7214 11.1174 23.5155 11.7398 22.8002 12.5752C22.1598 13.3134 21.598 14.4961 21.7503 15.6303C22.8614 15.7162 23.9961 15.0662 24.6878 14.2321Z" fill="white"/>
</svg>
