<svg width="44" height="44" viewBox="0 0 44 44" fill="none" xmlns="http://www.w3.org/2000/svg">
<path d="M43.5 21.9483C43.5 33.7928 33.8752 43.3967 22 43.3967C10.1248 43.3967 0.5 33.7928 0.5 21.9483C0.5 10.1039 10.1248 0.5 22 0.5C33.8752 0.5 43.5 10.1039 43.5 21.9483Z" fill="url(#paint0_linear_632_19851)" stroke="#2A2A2A"/>
<path d="M22.0354 22.724C22.4505 22.724 22.8555 22.5334 23.2605 22.1219L32.0382 13.5415C31.6838 13.1602 31.0055 12.9695 30.0235 12.9695H13.7842C12.9135 12.9695 12.306 13.1401 11.9821 13.4913L20.8205 22.1219C21.2154 22.5233 21.6305 22.724 22.0354 22.724ZM11.2835 28.4844L18.4818 21.5097L11.243 14.4648C11.081 14.7357 11 15.2174 11 15.8999V26.9891C11 27.7017 11.1012 28.2034 11.2835 28.4844ZM32.7469 28.4343C32.919 28.1633 33 27.6816 33 26.9891V15.8999C33 15.2476 32.9291 14.7859 32.7773 14.525L25.5992 21.5097L32.7469 28.4343ZM13.9867 29.9296H30.2158C31.0865 29.9296 31.6838 29.7489 32.0078 29.4177L24.7285 22.3427L24.0097 23.0552C23.3718 23.6674 22.7239 23.9584 22.0354 23.9584C21.347 23.9584 20.7092 23.6674 20.0713 23.0552L19.3424 22.3427L12.0529 29.4278C12.4073 29.759 13.0552 29.9296 13.9867 29.9296Z" fill="white"/>
<defs>
<linearGradient id="paint0_linear_632_19851" x1="22" y1="0" x2="22" y2="43.8967" gradientUnits="userSpaceOnUse">
<stop stop-color="#2073F1"/>
<stop offset="1" stop-color="#1AC7FB"/>
</linearGradient>
</defs>
</svg>
