<svg width="174" height="34" viewBox="0 0 174 34" fill="none" xmlns="http://www.w3.org/2000/svg">
<g clip-path="url(#clip0_682_9353)">
<path d="M11.1957 31.4409L16.8058 16.223L0.876692 21.5923C-0.925503 22.1953 0.237204 20.7596 0.237204 20.7596L2.70796 17.6873C3.87066 16.223 5.78913 16.223 5.78913 16.223C5.78913 16.223 3.87066 16.223 2.70796 14.7586L0.237204 11.6863C0.237204 11.6863 -0.925503 10.2219 0.876692 10.8536L16.8058 16.223V26.7607C16.8058 26.7607 16.8058 28.5983 15.2942 29.7182L12.0968 32.0726C12.0968 32.0439 10.5562 33.1637 11.1957 31.4409ZM16.8058 5.68522V16.223L11.1957 1.00498C10.5562 -0.717815 12.0677 0.401997 12.0677 0.401997L15.2652 2.75648C16.8058 3.84758 16.8058 5.68522 16.8058 5.68522Z" fill="#D2232A"/>
<path d="M92.2363 24.923H93.7188L94.4455 22.9706H97.236L97.9917 24.923H99.5323L96.393 17.1418H95.2594L92.2363 24.923ZM94.8524 21.8507L95.4338 20.3289C95.6372 19.726 95.7535 19.3814 95.8407 19.123H95.8698C95.9279 19.3814 96.0442 19.726 96.2767 20.3289L96.829 21.8795H94.8524V21.8507ZM103.456 25.0666C104.91 25.0666 105.927 24.5785 106.392 23.5735C106.596 23.1716 106.683 22.6547 106.683 22.0517V17.1992H105.259V21.9369C105.259 22.3676 105.201 22.7121 105.055 22.9993C104.794 23.5448 104.241 23.8607 103.456 23.8607C102.672 23.8607 102.119 23.5448 101.858 22.9993C101.712 22.7121 101.654 22.3676 101.654 21.9656V17.1992H100.23V22.0517C100.23 22.626 100.317 23.1428 100.521 23.5448C100.986 24.5498 102.003 25.0666 103.456 25.0666ZM110.055 24.923H111.479V18.3764H113.572L113.95 17.1705H107.758V18.3764H110.055V24.923ZM114.967 24.923H116.392V21.5636H120.141V24.923H121.595V17.1705H120.141V20.3864H116.392V17.1992H114.967V24.923ZM127.088 25.0666C129.385 25.0666 131.042 23.4874 131.042 21.1042C131.042 18.7784 129.414 17.1418 127.088 17.1418C124.763 17.1418 123.135 18.7497 123.135 21.1042C123.135 23.4587 124.763 25.0666 127.088 25.0666ZM127.088 23.8607C125.635 23.8607 124.676 22.827 124.676 21.0755C124.676 19.324 125.664 18.2903 127.088 18.2903C128.571 18.2903 129.501 19.3527 129.501 21.0755C129.501 22.8557 128.513 23.8607 127.088 23.8607ZM132.553 24.923H133.977V21.9082H134.646C134.85 21.9656 135.111 22.2814 135.489 22.9706L136.623 24.923H138.25L136.942 22.6547C136.535 21.9369 136.216 21.5349 135.954 21.3913V21.3626C136.855 21.0755 137.495 20.3864 137.495 19.3527C137.495 18.5774 137.175 17.8596 136.332 17.4576C135.925 17.2566 135.402 17.1418 134.646 17.1418H132.495V24.923H132.553ZM134.007 20.7596V18.3477H134.675C135.111 18.3477 135.373 18.4339 135.547 18.5774C135.896 18.7784 136.07 19.1517 136.07 19.5537C136.07 20.0418 135.867 20.3864 135.518 20.5874C135.286 20.7022 135.024 20.7884 134.646 20.7884H134.007V20.7596ZM139.442 24.923H140.867V17.1705H139.442V24.923ZM144.238 24.923H145.663V18.3764H147.756L148.163 17.1705H141.971V18.3764H144.267V24.923H144.238ZM151.389 24.923H152.842V21.8795L155.517 17.1992H153.976L152.145 20.6161H152.116L150.284 17.1992H148.715L151.389 21.8795V24.923Z" fill="#BCBEC0"/>
<path d="M92.2368 14.8734H93.6612V10.4803C93.6612 10.2218 93.6612 9.81986 93.6612 9.50401H93.6902C93.8356 9.79114 94.0681 10.0783 94.2134 10.308L95.9284 12.7486H96.5679L98.1085 10.3654C98.2538 10.1644 98.5445 9.705 98.6317 9.50401H98.6608C98.6317 9.81986 98.6317 10.2218 98.6317 10.5377V14.9021H100.085V7.14953H98.7771L96.8877 10.0208C96.6261 10.4228 96.4226 10.7674 96.2482 11.0545H96.2191C96.0447 10.7387 95.8412 10.4515 95.5506 10.0496L93.4868 7.12082H92.1787V14.8734H92.2368ZM101.132 14.8734H102.614L103.341 12.9209H106.131L106.887 14.8734H108.428L105.288 7.0921H104.155L101.132 14.8734ZM103.777 11.7724L104.358 10.2506C104.562 9.64758 104.678 9.30302 104.765 9.0446H104.794C104.852 9.30302 104.968 9.64758 105.172 10.2506L105.724 11.8011H103.777V11.7724ZM109.503 14.8734H113.718V13.6674H110.927V7.12082H109.503V14.8734ZM115.549 14.8734H116.973V8.32677H119.066L119.473 7.12082H113.282V8.32677H115.578V14.8734H115.549ZM118.747 14.8734H120.229L120.956 12.9209H123.746L124.502 14.8734H126.043L122.903 7.0921H121.77L118.747 14.8734ZM121.392 11.7724L121.973 10.2506C122.177 9.64758 122.293 9.30302 122.38 9.0446H122.409C122.467 9.30302 122.583 9.64758 122.816 10.2506L123.368 11.8011H121.392V11.7724ZM136.303 11.1119H134.85V13.5813C134.53 13.7248 134.065 13.811 133.542 13.811C131.856 13.811 130.868 12.7199 130.868 11.0545C130.868 9.41787 131.856 8.26934 133.745 8.26934C134.588 8.26934 135.286 8.47034 135.896 8.78618V7.46537C135.315 7.26438 134.53 7.0921 133.629 7.0921C131.013 7.0921 129.327 8.81489 129.327 11.1694C129.327 13.3803 130.839 15.0169 133.426 15.0169C134.53 15.0169 135.577 14.7585 136.274 14.3853V11.1119H136.303ZM137.234 14.8734H138.716L139.443 12.9209H142.233L142.989 14.8734H144.53L141.419 7.0921H140.257L137.234 14.8734ZM139.879 11.7724L140.46 10.2506C140.664 9.64758 140.78 9.30302 140.867 9.0446H140.896C140.954 9.30302 141.071 9.64758 141.303 10.2506L141.855 11.8011H139.879V11.7724ZM145.605 14.8734H147.029V10.4803C147.029 10.2218 147.029 9.81986 147.029 9.50401H147.058C147.204 9.79114 147.436 10.0783 147.582 10.308L149.297 12.7486H149.965L151.506 10.3654C151.651 10.1644 151.942 9.705 152.029 9.50401H152.058C152.029 9.81986 152.029 10.2218 152.029 10.5377V14.9021H153.482V7.14953H152.174L150.285 10.0208C150.023 10.4228 149.82 10.7674 149.645 11.0545H149.616C149.442 10.7387 149.239 10.4515 148.977 10.0496L146.913 7.12082H145.605V14.8734ZM155.43 14.8734H156.854V7.12082H155.43V14.8734ZM165.778 14.8734V7.12082H164.325V11.2555C164.325 11.6862 164.325 12.1456 164.354 12.5476H164.325C164.092 12.1743 163.801 11.8011 163.453 11.3417L160.168 7.0921H158.744V14.8447H160.168V10.4515C160.168 9.99213 160.168 9.56144 160.139 9.24559H160.168C160.43 9.59015 160.691 9.99214 161.04 10.4228L164.441 14.8447H165.778V14.8734ZM174.266 11.1119H172.812V13.5813C172.493 13.7248 172.028 13.811 171.504 13.811C169.818 13.811 168.83 12.7199 168.83 11.0545C168.83 9.41787 169.818 8.26934 171.708 8.26934C172.551 8.26934 173.248 8.47034 173.859 8.78618V7.46537C173.277 7.26438 172.493 7.0921 171.592 7.0921C168.975 7.0921 167.29 8.81489 167.29 11.1694C167.29 13.3803 168.801 15.0169 171.388 15.0169C172.493 15.0169 173.539 14.7585 174.237 14.3853V11.1119H174.266Z" fill="#BCBEC0"/>
<path d="M20.585 25.0091H26.2241V13.0357C27.2415 12.2892 28.5495 11.8872 29.625 11.8872C31.7179 11.8872 31.9504 13.3516 31.9504 15.0744V25.0091H37.5895V13.409V13.0357C38.6069 12.2892 39.8859 11.8872 40.9614 11.8872C43.0543 11.8872 43.3159 13.2942 43.3159 14.9882V25.0091H48.9841V13.5526C48.9841 8.67134 45.961 7.09211 42.7055 7.09211C40.8742 7.09211 38.636 7.86737 36.485 9.56144C35.5548 8.01093 33.8979 7.09211 31.6597 7.09211C29.5378 7.09211 27.5031 8.09707 25.8753 9.30302L25.3521 7.52281H20.614V25.0091H20.585ZM59.0705 33.7667C65.8142 33.7667 68.9826 30.924 68.9826 27.7943C68.9826 21.2477 57.3555 24.0903 57.3555 21.1329C57.3555 20.9606 57.3555 20.7596 57.5009 20.3576C58.0241 20.5012 58.7799 20.5873 59.5066 20.5873C64.0411 20.5873 67.2095 18.0318 67.2095 14.012C67.2095 12.5763 66.7735 11.1981 65.9305 10.1357C66.2212 10.0209 66.7444 9.99214 66.9769 9.99214C67.413 9.99214 67.9943 10.0783 68.4594 10.1644L69.5058 6.31685C69.2152 6.28814 68.6047 6.23071 68.2269 6.23071C65.6689 6.23071 64.5353 6.86241 63.5179 7.78123C63.3726 7.92479 63.2563 8.01093 63.0819 7.89608C62.3261 7.46538 61.0181 7.09211 59.3903 7.09211C53.9256 7.09211 51.7164 10.5951 51.7164 13.6674C51.7164 15.9645 52.7629 18.0893 54.8267 19.1804C53.4023 19.9556 52.4722 21.1616 52.4722 22.3962C52.4722 23.2863 52.8791 24.119 53.6349 24.5497C52.0362 25.0953 50.4956 26.5309 50.4956 28.5696C50.4956 31.4696 53.4895 33.7667 59.0705 33.7667ZM59.8844 30.0052C57.0649 30.0052 55.4662 29.0003 55.4662 27.5646C55.4662 26.7894 55.8731 26.2438 56.2219 25.9279C58.0241 26.8468 63.6632 26.3299 63.6632 28.3973C63.6632 29.4884 61.861 30.0052 59.8844 30.0052ZM59.4775 16.51C57.7916 16.51 56.9777 15.1892 56.9777 13.8397C56.9777 12.0021 58.0532 11.1407 59.4194 11.1407C61.1343 11.1407 62.0064 12.5476 62.0064 13.8684C61.9773 15.6199 60.9018 16.51 59.4775 16.51ZM81.7142 25.0091H86.3651C86.0744 24.0616 86.0744 22.6547 86.0744 21.5636V13.7248C86.0744 9.4753 83.8362 7.0634 78.3715 7.0634C75.5519 7.0634 73.1684 7.7238 71.0755 8.75747L72.8195 12.2605C74.0985 11.6001 75.8135 11.1981 77.296 11.1981C79.2144 11.1981 80.4062 11.8585 80.4062 13.4951V13.6674L77.5866 13.7823C75.7844 13.8684 74.1857 14.1843 72.9067 14.8447C71.0755 15.7922 69.9418 17.2566 69.9418 19.6111C69.9418 22.9705 72.4998 25.325 75.9589 25.325C78.168 25.325 79.7086 24.521 80.9004 23.4873L81.7142 25.0091ZM80.4062 17.2279V20.4724C79.9993 20.7309 79.0691 21.1041 77.8192 21.1041C76.4821 21.1041 75.61 20.5012 75.61 19.2952C75.61 18.5487 75.8717 18.118 76.3949 17.7734C76.889 17.4863 77.5866 17.3427 78.4877 17.2853L80.4062 17.2279Z" fill="#808285"/>
</g>
<defs>
<clipPath id="clip0_682_9353">
<rect width="174" height="34" fill="white"/>
</clipPath>
</defs>
</svg>
