<svg width="395" height="371" viewBox="0 0 395 371" fill="none" xmlns="http://www.w3.org/2000/svg">
<g clip-path="url(#clip0_682_19136)">
<path d="M374.512 0.387024L220.68 114.64L249.127 47.2323L374.512 0.387024Z" fill="#E2761B" stroke="#E2761B" stroke-width="6.74754" stroke-linecap="round" stroke-linejoin="round"/>
<path d="M19.3872 0.387024L171.982 115.722L144.926 47.2323L19.3872 0.387024Z" fill="#E4761B" stroke="#E4761B" stroke-width="6.74754" stroke-linecap="round" stroke-linejoin="round"/>
<path d="M319.167 265.225L278.196 327.995L365.857 352.113L391.058 266.617L319.167 265.225Z" fill="#E4761B" stroke="#E4761B" stroke-width="6.74754" stroke-linecap="round" stroke-linejoin="round"/>
<path d="M3.15723 266.617L28.2032 352.113L115.864 327.995L74.8938 265.225L3.15723 266.617Z" fill="#E4761B" stroke="#E4761B" stroke-width="6.74754" stroke-linecap="round" stroke-linejoin="round"/>
<path d="M110.918 159.166L86.4907 196.116L173.533 199.982L170.441 106.446L110.918 159.166Z" fill="#E4761B" stroke="#E4761B" stroke-width="6.74754" stroke-linecap="round" stroke-linejoin="round"/>
<path d="M282.986 159.166L222.69 105.363L220.68 199.981L307.568 196.116L282.986 159.166Z" fill="#E4761B" stroke="#E4761B" stroke-width="6.74754" stroke-linecap="round" stroke-linejoin="round"/>
<path d="M115.859 327.995L168.116 302.485L122.971 267.235L115.859 327.995Z" fill="#E4761B" stroke="#E4761B" stroke-width="6.74754" stroke-linecap="round" stroke-linejoin="round"/>
<path d="M225.782 302.485L278.193 327.995L270.927 267.235L225.782 302.485Z" fill="#E4761B" stroke="#E4761B" stroke-width="6.74754" stroke-linecap="round" stroke-linejoin="round"/>
<path d="M278.198 327.995L225.787 302.485L229.961 336.653L229.497 351.031L278.198 327.995Z" fill="#D7C1B3" stroke="#D7C1B3" stroke-width="6.74754" stroke-linecap="round" stroke-linejoin="round"/>
<path d="M115.859 327.995L164.56 351.031L164.251 336.653L168.116 302.485L115.859 327.995Z" fill="#D7C1B3" stroke="#D7C1B3" stroke-width="6.74754" stroke-linecap="round" stroke-linejoin="round"/>
<path d="M165.329 244.663L121.73 231.83L152.497 217.761L165.329 244.663Z" fill="#233447" stroke="#233447" stroke-width="6.74754" stroke-linecap="round" stroke-linejoin="round"/>
<path d="M228.57 244.663L241.402 217.761L272.323 231.83L228.57 244.663Z" fill="#233447" stroke="#233447" stroke-width="6.74754" stroke-linecap="round" stroke-linejoin="round"/>
<path d="M115.86 327.995L123.281 265.225L74.8901 266.617L115.86 327.995Z" fill="#CD6116" stroke="#CD6116" stroke-width="6.74754" stroke-linecap="round" stroke-linejoin="round"/>
<path d="M270.775 265.225L278.196 327.995L319.166 266.617L270.775 265.225Z" fill="#CD6116" stroke="#CD6116" stroke-width="6.74754" stroke-linecap="round" stroke-linejoin="round"/>
<path d="M307.568 196.117L220.68 199.982L228.72 244.663L241.552 217.762L272.473 231.831L307.568 196.117Z" fill="#CD6116" stroke="#CD6116" stroke-width="6.74754" stroke-linecap="round" stroke-linejoin="round"/>
<path d="M121.732 231.831L152.653 217.762L165.33 244.663L173.524 199.982L86.4819 196.117L121.732 231.831Z" fill="#CD6116" stroke="#CD6116" stroke-width="6.74754" stroke-linecap="round" stroke-linejoin="round"/>
<path d="M86.4824 196.117L122.969 267.236L121.732 231.831L86.4824 196.117Z" fill="#E4751F" stroke="#E4751F" stroke-width="6.74754" stroke-linecap="round" stroke-linejoin="round"/>
<path d="M272.472 231.831L270.926 267.236L307.567 196.117L272.472 231.831Z" fill="#E4751F" stroke="#E4751F" stroke-width="6.74754" stroke-linecap="round" stroke-linejoin="round"/>
<path d="M173.522 199.983L165.328 244.663L175.532 297.384L177.851 227.966L173.522 199.983Z" fill="#E4751F" stroke="#E4751F" stroke-width="6.74754" stroke-linecap="round" stroke-linejoin="round"/>
<path d="M220.679 199.983L216.505 227.812L218.36 297.384L228.719 244.663L220.679 199.983Z" fill="#E4751F" stroke="#E4751F" stroke-width="6.74754" stroke-linecap="round" stroke-linejoin="round"/>
<path d="M228.728 244.663L218.369 297.383L225.79 302.485L270.935 267.235L272.481 231.83L228.728 244.663Z" fill="#F6851B" stroke="#F6851B" stroke-width="6.74754" stroke-linecap="round" stroke-linejoin="round"/>
<path d="M121.73 231.83L122.967 267.235L168.112 302.485L175.533 297.383L165.329 244.663L121.73 231.83Z" fill="#F6851B" stroke="#F6851B" stroke-width="6.74754" stroke-linecap="round" stroke-linejoin="round"/>
<path d="M229.494 351.031L229.958 336.653L226.093 333.251H167.807L164.251 336.653L164.56 351.031L115.859 327.995L132.866 341.909L167.343 365.873H226.556L261.188 341.909L278.194 327.995L229.494 351.031Z" fill="#C0AD9E" stroke="#C0AD9E" stroke-width="6.74754" stroke-linecap="round" stroke-linejoin="round"/>
<path d="M225.787 302.485L218.366 297.383H175.54L168.119 302.485L164.254 336.653L167.81 333.251H226.096L229.961 336.653L225.787 302.485Z" fill="#161616" stroke="#161616" stroke-width="6.74754" stroke-linecap="round" stroke-linejoin="round"/>
<path d="M381.001 122.061L394.142 58.9822L374.508 0.387024L225.778 110.775L282.982 159.166L363.84 182.821L381.774 161.949L374.044 156.383L386.412 145.097L376.827 137.676L389.195 128.245L381.001 122.061Z" fill="#763D16" stroke="#763D16" stroke-width="6.74754" stroke-linecap="round" stroke-linejoin="round"/>
<path d="M-0.0942383 58.9822L13.0472 122.061L4.69851 128.245L17.0669 137.676L7.636 145.097L20.0044 156.383L12.2741 161.949L30.0537 182.821L110.912 159.166L168.116 110.775L19.386 0.387024L-0.0942383 58.9822Z" fill="#763D16" stroke="#763D16" stroke-width="6.74754" stroke-linecap="round" stroke-linejoin="round"/>
<path d="M363.848 182.821L282.989 159.166L307.571 196.117L270.93 267.235L319.167 266.617H391.058L363.848 182.821Z" fill="#F6851B" stroke="#F6851B" stroke-width="6.74754" stroke-linecap="round" stroke-linejoin="round"/>
<path d="M110.917 159.166L30.0584 182.821L3.15723 266.617H74.8938L122.976 267.235L86.4892 196.117L110.917 159.166Z" fill="#F6851B" stroke="#F6851B" stroke-width="6.74754" stroke-linecap="round" stroke-linejoin="round"/>
<path d="M220.684 199.982L225.786 110.775L249.285 47.2323H144.927L168.118 110.775L173.529 199.982L175.384 228.12L175.539 297.383H218.365L218.674 228.12L220.684 199.982Z" fill="#F6851B" stroke="#F6851B" stroke-width="6.74754" stroke-linecap="round" stroke-linejoin="round"/>
</g>
<defs>
<clipPath id="clip0_682_19136">
<rect width="394.056" height="371" fill="white"/>
</clipPath>
</defs>
</svg>
