<svg width="44" height="44" viewBox="0 0 44 44" fill="none" xmlns="http://www.w3.org/2000/svg">
<ellipse cx="22.1079" cy="21.9483" rx="21.892" ry="21.9483" fill="#2A2A2A"/>
<path d="M43.2841 21.9483C43.2841 33.7951 33.7053 43.3967 21.892 43.3967C10.0788 43.3967 0.5 33.7951 0.5 21.9483C0.5 10.1015 10.0788 0.5 21.892 0.5C33.7053 0.5 43.2841 10.1015 43.2841 21.9483Z" fill="#1D9BF0" stroke="#2A2A2A"/>
<path d="M30.7477 17.8134C30.7611 18.0158 30.7611 18.2182 30.7611 18.4225C30.7611 24.6467 26.2208 31.8251 17.9186 31.8251V31.8214C15.4661 31.8251 13.0646 31.092 11 29.7096C11.3566 29.7544 11.715 29.7768 12.0743 29.7777C14.1067 29.7796 16.081 29.0679 17.68 27.7574C15.7486 27.7191 14.0549 26.4049 13.4632 24.4863C14.1398 24.6224 14.8369 24.5945 15.501 24.4051C13.3953 23.9611 11.8804 22.0303 11.8804 19.788C11.8804 19.7675 11.8804 19.7479 11.8804 19.7283C12.5078 20.093 13.2103 20.2954 13.9289 20.3178C11.9456 18.9346 11.3343 16.1811 12.5319 14.0283C14.8235 16.9711 18.2046 18.7601 21.8342 18.9495C21.4704 17.3134 21.9674 15.5991 23.14 14.449C24.9579 12.6656 27.8171 12.757 29.5259 14.6532C30.5368 14.4452 31.5056 14.0582 32.3922 13.5097C32.0553 14.6001 31.3501 15.5263 30.4081 16.1149C31.3027 16.0048 32.1768 15.7548 33 15.3733C32.394 16.321 31.6308 17.1465 30.7477 17.8134Z" fill="white"/>
</svg>
